#!OML:ASF H:\LiuWeirdWalks\Patient Classification 1\Patient 1\Session 1\male.ASF
:FULLY-SPECIFIED
:DEGREES
1035
root -0.00474554 18.0083 24.1491 1.18322 7.76413 -6.44732
lowerback 10.9138 -0.915962 -3.85024
upperback 2.6149 -1.73062 -2.51501
thorax -3.3511 -0.830392 -0.214387
lowerneck -18.4787 -0.28461 2.23581
upperneck 16.0825 -2.0284 5.1421
head 8.0791 -0.287772 1.10618
rclavicle 6.36111e-015 1.43125e-014
rhumerus -38.9487 -25.1237 -0.342326
rradius 42.6585
rwrist -13.0345
rhand -20.5185 -7.90779
rfingers 7.12502
rthumb 5.83921 -37.8073
lclavicle 6.36111e-015 1.43125e-014
lhumerus -21.5869 35.4049 23.7124
lradius 36.6914
lwrist -7.0329
lhand -14.7456 -1.2706
lfingers 7.12502
lthumb 11.4101 28.3989
rfemur -10.5804 -4.66225 27.7397
rtibia 29.0835
rfoot -11.5885 -18.8463
rtoes -3.33354
lfemur -16.554 1.04872 -2.98712
ltibia 63.1095
lfoot -6.01301 3.87326
ltoes -18.4377
1036
root -0.0164673 18.0053 24.262 1.21789 8.11348 -6.68622
lowerback 10.9855 -1.00207 -3.95664
upperback 2.54869 -1.86255 -2.49874
thorax -3.45258 -0.892478 -0.118077
lowerneck -18.3672 -0.28852 2.20628
upperneck 16.0224 -2.06429 5.37743
head 8.04445 -0.285718 1.18471
rclavicle -1.86858e-014 -1.90833e-014
rhumerus -38.7851 -24.9868 -0.446741
rradius 42.3386
rwrist -13.4082
rhand -20.8227 -7.90824
rfingers 7.12502
rthumb 5.5455 -37.8157
lclavicle -1.86858e-014 -1.90833e-014
lhumerus -21.7921 35.8059 23.562
lradius 36.8999
lwrist -7.46661
lhand -14.6479 -1.3653
lfingers 7.12502
lthumb 11.5044 28.299
rfemur -10.1155 -4.67232 28.1061
rtibia 28.7841
rfoot -11.7203 -19.2653
rtoes -3.31004
lfemur -17.8835 1.40289 -2.58777
ltibia 63.2614
lfoot -6.53841 4.22819
ltoes -18.5436
1037
root -0.0259979 18.0014 24.3758 1.24141 8.47412 -6.91663
lowerback 11.0355 -1.0463 -3.94932
upperback 2.51135 -1.92568 -2.52887
thorax -3.5189 -0.922203 -0.143523
lowerneck -18.2676 -0.358584 2.10411
upperneck 15.9182 -2.17998 5.67011
head 8.00029 -0.321422 1.28417
rclavicle -1.90833e-014 -3.97569e-014
rhumerus -38.9013 -24.9134 -0.34978
rradius 42.1059
rwrist -13.5206
rhand -20.9366 -7.88169
rfingers 7.12502
rthumb 5.43556 -37.792
lclavicle -1.90833e-014 -3.97569e-014
lhumerus -21.7705 36.0381 23.5981
lradius 37.0511
lwrist -7.76938
lhand -14.5834 -1.4522
lfingers 7.12502
lthumb 11.5666 28.2086
rfemur -9.63568 -4.72886 28.4532
rtibia 28.4889
rfoot -11.8631 -19.6526
rtoes -3.29572
lfemur -19.1896 1.73972 -2.23699
ltibia 63.2614
lfoot -7.02163 4.60506
ltoes -18.5377
1038
root -0.0339425 17.9963 24.4883 1.25785 8.8297 -7.14667
lowerback 11.1217 -1.108 -3.97022
upperback 2.45596 -2.01771 -2.54836
thorax -3.62201 -0.965179 -0.136982
lowerneck -18.0891 -0.398916 2.03465
upperneck 15.7687 -2.24976 5.92638
head 7.92585 -0.3401 1.37108
rclavicle 4.37326e-015 3.97569e-014
rhumerus -38.8914 -24.802 -0.285165
rradius 41.7845
rwrist -13.6598
rhand -21.0556 -7.8179
rfingers 7.12502
rthumb 5.32064 -37.7311
lclavicle 4.37326e-015 3.97569e-014
lhumerus -21.9342 35.9554 23.5727
lradius 37.3323
lwrist -7.74283
lhand -14.5315 -1.38741
lfingers 7.12502
lthumb 11.6166 28.2706
rfemur -9.16001 -4.78924 28.7974
rtibia 28.203
rfoot -11.9867 -20.0337
rtoes -3.32904
lfemur -20.4848 2.07076 -1.91953
ltibia 63.1061
lfoot -7.44522 4.9762
ltoes -18.5046
1039
root -0.0403356 17.9902 24.6002 1.26408 9.17063 -7.39092
lowerback 11.1881 -1.12986 -3.90163
upperback 2.45561 -2.0439 -2.58925
thorax -3.66238 -0.977938 -0.212817
lowerneck -18.0147 -0.492642 1.90434
upperneck 15.6007 -2.38845 6.22992
head 7.86682 -0.389544 1.4754
rclavicle -2.62396e-014 -1.59028e-014
rhumerus -39.0762 -24.7737 -0.0975648
rradius 41.5973
rwrist -13.8387
rhand -21.1628 -7.77997
rfingers 7.12502
rthumb 5.21713 -37.6957
lclavicle -2.62396e-014 -1.59028e-014
lhumerus -21.8835 35.8039 23.7252
lradius 37.5426
lwrist -7.61161
lhand -14.5065 -1.28606
lfingers 7.12502
lthumb 11.6407 28.3706
rfemur -8.68302 -4.8469 29.1546
rtibia 27.9223
rfoot -12.0899 -20.4039
rtoes -3.39816
lfemur -21.754 2.40562 -1.61511
ltibia 62.7913
lfoot -7.80094 5.32441
ltoes -18.4257
1040
root -0.04218 17.9848 24.711 1.28512 9.54836 -7.56576
lowerback 11.2581 -1.11643 -3.73255
upperback 2.46589 -2.01435 -2.70136
thorax -3.70114 -0.964378 -0.426935
lowerneck -17.9638 -0.661362 1.69869
upperneck 15.4099 -2.62162 6.60091
head 7.8096 -0.482289 1.60298
rclavicle 1.39149e-014 -1.90833e-014
rhumerus -39.5717 -24.7701 0.291461
rradius 41.5469
rwrist -13.7753
rhand -21.0845 -7.80626
rfingers 7.12502
rthumb 5.29277 -37.7202
lclavicle 1.39149e-014 -1.90833e-014
lhumerus -21.5677 35.6261 24.0683
lradius 37.6223
lwrist -7.51514
lhand -14.5023 -1.27377
lfingers 7.12502
lthumb 11.6447 28.3826
rfemur -8.22412 -5.04575 29.4074
rtibia 27.6572
rfoot -12.18 -20.6752
rtoes -3.53427
lfemur -23.0156 2.67292 -1.44414
ltibia 62.3095
lfoot -8.08939 5.68173
ltoes -18.3655
1041
root -0.0431401 17.9785 24.822 1.29067 9.8981 -7.77623
lowerback 11.2962 -1.06243 -3.47236
upperback 2.54365 -1.91569 -2.82175
thorax -3.65572 -0.919139 -0.712033
lowerneck -18.0845 -0.8878 1.41415
upperneck 15.2408 -2.93156 7.02863
head 7.79551 -0.606758 1.75357
rclavicle 1.63003e-014 -3.18055e-014
rhumerus -40.2527 -24.8815 0.804937
rradius 41.635
rwrist -13.666
rhand -20.97 -7.87187
rfingers 7.12502
rthumb 5.40333 -37.783
lclavicle 1.63003e-014 -3.18055e-014
lhumerus -21.0336 35.4665 24.5858
lradius 37.6158
lwrist -7.388
lhand -14.5295 -1.23889
lfingers 7.12502
lthumb 11.6185 28.419
rfemur -7.76542 -5.21524 29.7008
rtibia 27.4045
rfoot -12.2504 -20.9542
rtoes -3.69811
lfemur -24.2294 2.95453 -1.2531
ltibia 61.6652
lfoot -8.32261 5.98319
ltoes -18.2547
